# xmcd CD database file
#
# Track frame offsets:
#	150
#	13243
#	26308
#	38402
#	54243
#	71176
#	83652
#	98110
#	112143
#	123210
#	149316
#	162288
#	175378
#	192568
#	209206
#
# Disc length: 3035 seconds
#
# Revision: 1
# Processed by: cddbd v1.5.2PL0 Copyright (c) Steve Scherf et al.
# Submitted via: CDex 1.51
#
DISCID=d30bd90f
DTITLE=B&D Bruninho e Davi -  Proibido para menores
DYEAR=2010
DGENRE=Country
TTITLE0=Zona Sul
TTITLE1=Carabina
TTITLE2=E eu com isso
TTITLE3=Manchete de jornal
TTITLE4=Minha linda
TTITLE5=Lua
TTITLE6=Quero provar que te amo
TTITLE7=Só você
TTITLE8=Escolha
TTITLE9=Pout-Pourri (Evidências/ Temporal de amor/ Página)
TTITLE10=Grande amor
TTITLE11=Vou para festa
TTITLE12=Pout-Pourri (Amargurado/ Telefone mudo/ Fio de cabelo)
TTITLE13=Ilusão
TTITLE14=Toda forma
EXTD=YEAR: 2010
EXTT0=
EXTT1=
EXTT2=
EXTT3=
EXTT4=
EXTT5=
EXTT6=
EXTT7=
EXTT8=
EXTT9=
EXTT10=
EXTT11=
EXTT12=
EXTT13=
EXTT14=
PLAYORDER=
